<svg width="120" height="56" viewBox="0 0 120 56" fill="none" xmlns="http://www.w3.org/2000/svg">
<g clip-path="url(#clip0_1_44)">
<path d="M3.67524 41.545H0.0276184V39.3381H9.85428V41.545H6.20762V55.0399H3.67619V41.545H3.67524Z" fill="#072530"/>
<path d="M14.8543 55.0399H12.1086L18.6314 39.3381H20.9267L27.3419 55.0399H24.5962L23.0943 51.3268H16.3143L14.8543 55.0399ZM19.6819 42.2449L17 49.3111H22.4067L19.6819 42.2449Z" fill="#072530"/>
<path d="M43.8848 43.7934C43.4771 43.2207 42.9838 42.7112 42.4257 42.308C41.5029 41.6506 40.3876 41.2474 39.0781 41.2474C36.0743 41.2474 33.2648 43.4967 33.2648 47.1467C33.2648 50.9237 36.0971 53.1306 39.0781 53.1306C40.5371 53.1306 41.8029 52.6851 42.7476 51.9636C43.7133 51.2421 44.3781 50.2446 44.6143 49.1623H37.7705V47.125H47.5533C47.5533 48.1225 47.3819 49.4798 46.8457 50.6468C45.3867 53.7655 42.1048 55.3357 39.1 55.3357C34.4019 55.3357 30.7543 51.7498 30.7543 47.1457C30.7543 42.4569 34.5095 39.0405 39.1219 39.0405C42.5333 39.0405 45.601 41.0779 46.7381 43.7934H43.8848Z" fill="#072530"/>
<path d="M52.5124 47.2738C52.5124 42.3297 56.3533 39.0405 60.8152 39.0405C65.5562 39.0405 69.14 42.6688 69.14 47.1881C69.14 51.7074 65.5571 55.3357 60.7943 55.3357C56.0095 55.3357 52.5124 51.6226 52.5124 47.2936V47.2738ZM55.0228 47.189C55.0228 50.4565 57.4686 53.1306 60.8581 53.1306C64.3124 53.1306 66.6086 50.2663 66.6086 47.2107C66.6086 44.1344 64.3133 41.2484 60.8371 41.2484C57.3828 41.2484 55.0238 44.0073 55.0238 47.1683V47.189H55.0228Z" fill="#072530"/>
<path d="M74.8276 39.3381H79.3114C81.8 39.3381 83.0876 39.6772 83.9238 40.2508C85.2324 41.0995 86.0267 42.7337 86.0267 44.4951C86.0267 45.5981 85.7048 46.6596 85.1257 47.4866C84.3105 48.6113 83.28 48.9928 82.0581 49.2056L85.7914 55.0408H83.1095L78.7543 47.9538H79.3124C80.4067 47.9538 81.7371 47.9114 82.4876 47.2747C83.2171 46.638 83.5819 45.7253 83.5819 44.7071C83.5819 43.6465 83.0667 42.6066 82.2295 42.0546C81.5429 41.6298 80.6638 41.545 79.5267 41.545H77.359V55.0399H74.8276V39.3381Z" fill="#072530"/>
<path d="M92.8086 55.0399H90.0629L96.5857 39.3381H98.881L105.296 55.0399H102.55L101.049 51.3268H94.2695L92.8086 55.0399ZM97.6362 42.2449L94.9543 49.3111H100.361L97.6362 42.2449Z" fill="#072530"/>
<path d="M112.141 50.3935C112.313 52.7492 113.987 53.2154 114.823 53.2154C116.239 53.2154 117.462 52.1125 117.462 50.7118C117.462 48.9721 115.96 48.569 113.922 47.8258C112.678 47.4227 109.91 46.5099 109.91 43.5608C109.889 40.6324 112.42 39.0415 114.909 39.0415C116.947 39.0415 119.5 40.1445 119.693 43.3705H117.205C117.033 42.5219 116.648 41.1636 114.824 41.1636C113.536 41.1636 112.421 42.034 112.421 43.3705C112.421 44.8983 113.601 45.2808 116.153 46.2142C118.128 47.0421 119.972 48.0387 119.972 50.5856C119.972 53.1316 118.235 55.3385 114.845 55.3385C111.691 55.3385 109.674 53.4293 109.631 50.3944H112.141V50.3935Z" fill="#072530"/>
<path d="M44.5419 7.98652L58.0505 29.9397L56.4571 32.9539L39.4819 5.02043H71.8152L70.1486 7.98746H62.4924V23.2776L60.9343 20.692L59.6657 18.5859V7.98652H44.5419ZM75.3276 3.01415L63.1467 24.3589L64.6619 26.8804L80.3924 0.0471191H43.1876L44.7762 2.90677L75.3276 3.01415ZM77.1848 9.95607L64.3486 31.2584L60.9857 25.6672L59.2152 22.7303L51.6095 10.0889L48.2371 10.136L57.6429 25.7661L58.9029 27.86L59.2533 28.4421L64.4219 37.0258L80.5181 9.97397L77.1848 9.95607Z" fill="url(#paint0_linear_1_44)"/>
</g>
<defs>
<linearGradient id="paint0_linear_1_44" x1="39.4821" y1="18.5365" x2="80.5179" y2="18.5365" gradientUnits="userSpaceOnUse">
<stop offset="0.00546448" stop-color="#F865EF"/>
<stop offset="1" stop-color="#4254F0"/>
</linearGradient>
<clipPath id="clip0_1_44">
<rect width="120" height="55.3846" fill="white"/>
</clipPath>
</defs>
</svg>
