<svg width="130" height="131" viewBox="0 0 130 131" fill="none" xmlns="http://www.w3.org/2000/svg">
<rect x="10.8327" y="11.218" width="108.333" height="16.25" rx="2" stroke="white" stroke-width="2" stroke-linejoin="round"/>
<path d="M16.25 27.468H113.75V117.551C113.75 118.656 112.855 119.551 111.75 119.551H18.25C17.1454 119.551 16.25 118.656 16.25 117.551V27.468Z" stroke="white" stroke-width="2" stroke-linejoin="round"/>
<circle cx="43.3333" cy="54.5514" r="10.8333" stroke="white" stroke-width="2" stroke-linejoin="round"/>
<path d="M97.4993 81.6347L75.8327 103.301" stroke="white" stroke-width="2" stroke-linejoin="round"/>
<path d="M75.8333 81.6346L97.5 103.301" stroke="white" stroke-width="2" stroke-linejoin="round"/>
<path d="M32.5 97.8847H57.5833C58.6879 97.8847 59.5833 96.9893 59.5833 95.8847V77.0465C59.5833 76.516 59.794 76.0073 60.1691 75.6323L92.0833 43.718M92.0833 43.718V65.3847M92.0833 43.718H70.4167" stroke="white" stroke-width="2" stroke-linejoin="round"/>
</svg>
